<svg xmlns="http://www.w3.org/2000/svg" xmlns:xlink="http://www.w3.org/1999/xlink" width="992.249" height="337.382" viewBox="0 0 992.249 337.382">
  <defs>
    <style>
      .cls-1 {
        fill: #ece7e1;
      }

      .cls-2 {
        filter: url(#Path_16);
      }
    </style>
    <filter id="Path_16" x="0" y="0" width="992.249" height="337.382" filterUnits="userSpaceOnUse">
      <feOffset dy="3" input="SourceAlpha"/>
      <feGaussianBlur stdDeviation="3" result="blur"/>
      <feFlood flood-opacity="0.161"/>
      <feComposite operator="in" in2="blur"/>
      <feComposite in="SourceGraphic"/>
    </filter>
  </defs>
  <g class="cls-2" transform="matrix(1, 0, 0, 1, 0, 0)">
    <path id="Path_16-2" data-name="Path 16" class="cls-1" d="M1667.017,1182.128s-109.436-9.336-162.668,34.213-17.472,113.435-17.472,113.435-38.815,48.625,7.35,78.241,104.487,0,104.487,0,50.677,38.413,113.307,38.413,62.416-31.277,132.5-31.277,73.976,31.277,147.849,31.277,147.643-31.277,147.643-31.277,68.449,24.22,114.28,10.729,84.03-40.622,84.03-40.622,82.522-7.885,103.028-44.841c12.684-35.987-5.425-67.2-5.425-67.2s8.743-22.07-6.856-45.981-35.289-25.787-35.289-25.787-9.223-28.41-43.244-40.236c-49.291-25.217-110.7,0-110.7,0s-72.508-38.908-128.035-33.678-55.207,17.357-93.65,19.877-26.9,3.607-60.124-9.8-74.118,9.8-74.118,9.8-69.268-23.2-123.721-9.8S1667.017,1182.128,1667.017,1182.128Z" transform="translate(-1462.61 -1121.05)"/>
  </g>
</svg>
