<svg xmlns="http://www.w3.org/2000/svg" width="317.817" height="178.834" viewBox="0 0 317.817 178.834">
  <defs>
    <style>
      .cls-1 {
        fill: #968370;
      }
    </style>
  </defs>
  <path id="Path_15" data-name="Path 15" class="cls-1" d="M1772.591,788.623l1.153-6.367,1.615-6.276,2.735-8.491,2.345-6.747,1.913-6.225,2.177-6.02,2.766-7.815,3.2-7.77,2.824-4.843a45,45,0,0,1,25.076-17.021c7.432-1.962,16.706-3.63,24.943-3.495a77.768,77.768,0,0,1,18.167,2.514,97.089,97.089,0,0,0,23.971,5.918,98.175,98.175,0,0,0,24.736-1.388s22.97-3.043,37.256,4.493,19.887,25.65,19.887,25.65l7.947,46.329a128.871,128.871,0,0,1,27.741,3.816c6.552,1.672,21.307,7.107,28.119,14.977,2.577,2.976,5.473,10.731,2.239,17.679-2.864,6.157-11.517,12.017-13.982,14.142-28.389,17.1-44.118,19.068-44.118,19.068s-52.68,16.693-107.993,22.039c-22.4,2.165-45.729,3.939-65.252,3.529a341.188,341.188,0,0,1-48.009-4.182,87.719,87.719,0,0,1-19.657-8.1,36.361,36.361,0,0,1-13.666-13.29s-7.1-17.581-1.652-28.075a30.9,30.9,0,0,1,15.318-14.055,198.747,198.747,0,0,0,19.657-6.343,80.71,80.71,0,0,0,14.008-7.2l-3.072,22.143s42.367,17.056,102.324,14.559A805.951,805.951,0,0,0,1975.3,829.936V797.412s-58.425,5.4-107.993,4.179S1772.591,788.623,1772.591,788.623Z" transform="translate(-1717.017 -707.545)"/>
</svg>
