<svg id="Component_5_1" data-name="Component 5 – 1" xmlns="http://www.w3.org/2000/svg" width="177.96" height="164.482" viewBox="0 0 177.96 164.482">
  <defs>
    <style>
      .cls-1 {
        fill: #ece7e1;
      }
    </style>
  </defs>
  <path id="Path_17" data-name="Path 17" class="cls-1" d="M1627.714,329.88s-8.016-9.717-1.808-18.811,20.54-6.554,20.54-6.554,14.558-9.78,22.72-5.12,11.16,16.092,11.16,16.092,17.371,6.887,8.839,24.259c-2.257,7.391-16.4,8.235-16.4,8.235s.449,13.266-12.424,14.943-13.9-7.425-13.9-7.425-11.629-.241-17.1-3.643C1619.177,345.532,1627.714,329.88,1627.714,329.88Z" transform="translate(-1513.562 -198.648)"/>
  <path id="Path_18" data-name="Path 18" class="cls-1" d="M1626.875,324.948s-6.4-8.207-1.444-15.888,16.4-5.536,16.4-5.536,9.621-12.5,21.256-8.363,5.8,17.63,5.8,17.63,13.872,5.817,7.059,20.49c-1.8,6.243-13.1,6.956-13.1,6.956s.738,13.684-9.542,15.1-11.475-8.75-11.475-8.75-7.439-2.719-11.807-5.593C1621.906,335.652,1626.875,324.948,1626.875,324.948Z" transform="translate(-796.987 -1365.114) rotate(47)"/>
  <path id="Path_19" data-name="Path 19" class="cls-1" d="M1625.774,315.628s-4.283-5.354-.966-10.365,10.975-3.611,10.975-3.611,7.779-5.389,12.14-2.821,5.963,8.867,5.963,8.867,9.282,3.8,4.723,13.367c-1.206,4.073-8.763,4.538-8.763,4.538s.24,7.31-6.639,8.234-7.425-4.091-7.425-4.091-6.214-.133-9.137-2.007C1621.213,324.253,1625.774,315.628,1625.774,315.628Z" transform="matrix(-0.819, 0.574, -0.574, -0.819, 1551.232, -657.673)"/>
</svg>
